<mxfile host="app.diagrams.net" modified="2023-03-24T10:01:20.946Z" agent="Mozilla/5.0 (Windows NT 10.0; Win64; x64) AppleWebKit/537.36 (KHTML, like Gecko) Chrome/111.0.0.0 Safari/537.36" etag="G8SpwORUzyChG76o0y6B" version="21.1.0" type="device">
  <diagram name="Pagina-1" id="MYOMChCcrB0jk0wXZojw">
    <mxGraphModel dx="1450" dy="1023" grid="0" gridSize="10" guides="1" tooltips="1" connect="1" arrows="1" fold="1" page="0" pageScale="1" pageWidth="827" pageHeight="1169" math="0" shadow="0">
      <root>
        <mxCell id="0" />
        <mxCell id="1" parent="0" />
        <mxCell id="PJz41p5IMt3iVWeXYQja-2" value="" style="rounded=0;whiteSpace=wrap;html=1;fontSize=16;" parent="1" vertex="1">
          <mxGeometry x="-269" y="-142" width="740" height="397" as="geometry" />
        </mxCell>
        <mxCell id="PJz41p5IMt3iVWeXYQja-6" value="&lt;font style=&quot;font-size: 49px;&quot;&gt;Burndown Chart&lt;/font&gt;" style="text;html=1;strokeColor=none;fillColor=none;align=center;verticalAlign=middle;whiteSpace=wrap;rounded=0;fontSize=16;" parent="1" vertex="1">
          <mxGeometry x="-160" y="-208" width="464" height="94" as="geometry" />
        </mxCell>
        <mxCell id="7uBfyhkHkfYMKSbBYELB-3" value="1&amp;nbsp; &amp;nbsp; &amp;nbsp; 2&amp;nbsp; &amp;nbsp; &amp;nbsp; &amp;nbsp; &amp;nbsp;1&amp;nbsp; &amp;nbsp; &amp;nbsp; 2&amp;nbsp; &amp;nbsp; &amp;nbsp; &amp;nbsp; &amp;nbsp;1&amp;nbsp; &amp;nbsp; &amp;nbsp; 2&amp;nbsp; &amp;nbsp; &amp;nbsp; &amp;nbsp; &amp;nbsp;1&amp;nbsp; &amp;nbsp; &amp;nbsp; 2&amp;nbsp; &amp;nbsp; &amp;nbsp; &amp;nbsp; &amp;nbsp;1&amp;nbsp; &amp;nbsp; &amp;nbsp; 2&amp;nbsp; &amp;nbsp; &amp;nbsp; &amp;nbsp; &amp;nbsp;1&amp;nbsp; &amp;nbsp; &amp;nbsp; 2&amp;nbsp; &amp;nbsp; &amp;nbsp; &amp;nbsp; &amp;nbsp;1&amp;nbsp; &amp;nbsp; &amp;nbsp; 2&amp;nbsp; &amp;nbsp; &amp;nbsp; &amp;nbsp; &amp;nbsp;1&amp;nbsp; &amp;nbsp; &amp;nbsp; 2&amp;nbsp; &amp;nbsp; &amp;nbsp; &amp;nbsp; &amp;nbsp;1&amp;nbsp; &amp;nbsp; &amp;nbsp; 2&amp;nbsp; &amp;nbsp; &amp;nbsp;&amp;nbsp;" style="text;html=1;strokeColor=none;fillColor=none;align=center;verticalAlign=middle;whiteSpace=wrap;rounded=0;fontSize=16;" vertex="1" parent="1">
          <mxGeometry x="-317" y="255" width="846" height="30" as="geometry" />
        </mxCell>
        <mxCell id="7uBfyhkHkfYMKSbBYELB-5" value="Week 1&amp;nbsp; &amp;nbsp; &amp;nbsp; &amp;nbsp; Week 2&amp;nbsp; &amp;nbsp; &amp;nbsp; &amp;nbsp;Week 3&amp;nbsp; &amp;nbsp; &amp;nbsp; &amp;nbsp;Week 4&amp;nbsp; &amp;nbsp; &amp;nbsp; &amp;nbsp;Week 5&amp;nbsp; &amp;nbsp; &amp;nbsp; &amp;nbsp;Week 6&amp;nbsp; &amp;nbsp; &amp;nbsp; &amp;nbsp;Week 7&amp;nbsp; &amp;nbsp; &amp;nbsp; &amp;nbsp;Week 8&amp;nbsp; &amp;nbsp; &amp;nbsp; &amp;nbsp;Week 9" style="text;html=1;strokeColor=none;fillColor=none;align=center;verticalAlign=middle;whiteSpace=wrap;rounded=0;fontSize=16;" vertex="1" parent="1">
          <mxGeometry x="-269" y="283" width="741" height="30" as="geometry" />
        </mxCell>
        <mxCell id="7uBfyhkHkfYMKSbBYELB-10" value="" style="endArrow=none;dashed=1;html=1;rounded=0;fontSize=12;startSize=8;endSize=8;curved=1;entryX=0.14;entryY=0.027;entryDx=0;entryDy=0;entryPerimeter=0;" edge="1" parent="1" target="7uBfyhkHkfYMKSbBYELB-3">
          <mxGeometry width="50" height="50" relative="1" as="geometry">
            <mxPoint x="-199" y="-143" as="sourcePoint" />
            <mxPoint x="-199" y="253" as="targetPoint" />
            <Array as="points">
              <mxPoint x="-199" y="-102" />
            </Array>
          </mxGeometry>
        </mxCell>
        <mxCell id="7uBfyhkHkfYMKSbBYELB-11" value="" style="endArrow=none;dashed=1;html=1;rounded=0;fontSize=12;startSize=8;endSize=8;curved=1;entryX=0.14;entryY=0.027;entryDx=0;entryDy=0;entryPerimeter=0;" edge="1" parent="1">
          <mxGeometry width="50" height="50" relative="1" as="geometry">
            <mxPoint x="-114" y="-144" as="sourcePoint" />
            <mxPoint x="-114" y="255" as="targetPoint" />
            <Array as="points">
              <mxPoint x="-114" y="-103" />
            </Array>
          </mxGeometry>
        </mxCell>
        <mxCell id="7uBfyhkHkfYMKSbBYELB-12" value="" style="endArrow=none;dashed=1;html=1;rounded=0;fontSize=12;startSize=8;endSize=8;curved=1;entryX=0.14;entryY=0.027;entryDx=0;entryDy=0;entryPerimeter=0;" edge="1" parent="1">
          <mxGeometry width="50" height="50" relative="1" as="geometry">
            <mxPoint x="-33" y="-144" as="sourcePoint" />
            <mxPoint x="-33" y="255" as="targetPoint" />
            <Array as="points">
              <mxPoint x="-33" y="-103" />
            </Array>
          </mxGeometry>
        </mxCell>
        <mxCell id="7uBfyhkHkfYMKSbBYELB-13" value="" style="endArrow=none;dashed=1;html=1;rounded=0;fontSize=12;startSize=8;endSize=8;curved=1;entryX=0.14;entryY=0.027;entryDx=0;entryDy=0;entryPerimeter=0;" edge="1" parent="1">
          <mxGeometry width="50" height="50" relative="1" as="geometry">
            <mxPoint x="136" y="-144" as="sourcePoint" />
            <mxPoint x="136" y="255" as="targetPoint" />
            <Array as="points">
              <mxPoint x="136" y="-103" />
            </Array>
          </mxGeometry>
        </mxCell>
        <mxCell id="7uBfyhkHkfYMKSbBYELB-14" value="" style="endArrow=none;dashed=1;html=1;rounded=0;fontSize=12;startSize=8;endSize=8;curved=1;entryX=0.14;entryY=0.027;entryDx=0;entryDy=0;entryPerimeter=0;" edge="1" parent="1">
          <mxGeometry width="50" height="50" relative="1" as="geometry">
            <mxPoint x="52" y="-144" as="sourcePoint" />
            <mxPoint x="52" y="255" as="targetPoint" />
            <Array as="points">
              <mxPoint x="52" y="-103" />
            </Array>
          </mxGeometry>
        </mxCell>
        <mxCell id="7uBfyhkHkfYMKSbBYELB-15" value="" style="endArrow=none;dashed=1;html=1;rounded=0;fontSize=12;startSize=8;endSize=8;curved=1;entryX=0.14;entryY=0.027;entryDx=0;entryDy=0;entryPerimeter=0;" edge="1" parent="1">
          <mxGeometry width="50" height="50" relative="1" as="geometry">
            <mxPoint x="222" y="-144" as="sourcePoint" />
            <mxPoint x="222" y="255" as="targetPoint" />
            <Array as="points">
              <mxPoint x="222" y="-103" />
            </Array>
          </mxGeometry>
        </mxCell>
        <mxCell id="7uBfyhkHkfYMKSbBYELB-16" value="" style="endArrow=none;dashed=1;html=1;rounded=0;fontSize=12;startSize=8;endSize=8;curved=1;entryX=0.14;entryY=0.027;entryDx=0;entryDy=0;entryPerimeter=0;" edge="1" parent="1">
          <mxGeometry width="50" height="50" relative="1" as="geometry">
            <mxPoint x="389" y="-144" as="sourcePoint" />
            <mxPoint x="389" y="255" as="targetPoint" />
            <Array as="points">
              <mxPoint x="389" y="-103" />
            </Array>
          </mxGeometry>
        </mxCell>
        <mxCell id="7uBfyhkHkfYMKSbBYELB-17" value="" style="endArrow=none;dashed=1;html=1;rounded=0;fontSize=12;startSize=8;endSize=8;curved=1;entryX=0.14;entryY=0.027;entryDx=0;entryDy=0;entryPerimeter=0;" edge="1" parent="1">
          <mxGeometry width="50" height="50" relative="1" as="geometry">
            <mxPoint x="303" y="-143" as="sourcePoint" />
            <mxPoint x="303" y="256" as="targetPoint" />
            <Array as="points">
              <mxPoint x="303" y="-102" />
            </Array>
          </mxGeometry>
        </mxCell>
        <mxCell id="7uBfyhkHkfYMKSbBYELB-24" value="" style="endArrow=none;dashed=1;html=1;rounded=0;fontSize=12;startSize=8;endSize=8;curved=1;entryX=0;entryY=0;entryDx=0;entryDy=0;exitX=1;exitY=1;exitDx=0;exitDy=0;" edge="1" parent="1" source="PJz41p5IMt3iVWeXYQja-2" target="PJz41p5IMt3iVWeXYQja-2">
          <mxGeometry width="50" height="50" relative="1" as="geometry">
            <mxPoint x="-85" y="84" as="sourcePoint" />
            <mxPoint x="-35" y="34" as="targetPoint" />
          </mxGeometry>
        </mxCell>
        <mxCell id="7uBfyhkHkfYMKSbBYELB-26" value="5" style="text;html=1;strokeColor=none;fillColor=none;align=center;verticalAlign=middle;whiteSpace=wrap;rounded=0;fontSize=16;" vertex="1" parent="1">
          <mxGeometry x="-317" y="183" width="60" height="21" as="geometry" />
        </mxCell>
        <mxCell id="7uBfyhkHkfYMKSbBYELB-27" value="10" style="text;html=1;strokeColor=none;fillColor=none;align=center;verticalAlign=middle;whiteSpace=wrap;rounded=0;fontSize=16;" vertex="1" parent="1">
          <mxGeometry x="-317" y="80" width="60" height="30" as="geometry" />
        </mxCell>
        <mxCell id="7uBfyhkHkfYMKSbBYELB-28" value="20" style="text;html=1;strokeColor=none;fillColor=none;align=center;verticalAlign=middle;whiteSpace=wrap;rounded=0;fontSize=16;" vertex="1" parent="1">
          <mxGeometry x="-312" y="-139" width="60" height="30" as="geometry" />
        </mxCell>
        <mxCell id="7uBfyhkHkfYMKSbBYELB-32" value="15" style="text;html=1;strokeColor=none;fillColor=none;align=center;verticalAlign=middle;whiteSpace=wrap;rounded=0;fontSize=16;" vertex="1" parent="1">
          <mxGeometry x="-317" y="-29" width="60" height="30" as="geometry" />
        </mxCell>
        <mxCell id="7uBfyhkHkfYMKSbBYELB-33" style="edgeStyle=none;curved=1;rounded=0;orthogonalLoop=1;jettySize=auto;html=1;exitX=0.5;exitY=1;exitDx=0;exitDy=0;fontSize=12;startSize=8;endSize=8;" edge="1" parent="1" source="7uBfyhkHkfYMKSbBYELB-26" target="7uBfyhkHkfYMKSbBYELB-26">
          <mxGeometry relative="1" as="geometry" />
        </mxCell>
        <mxCell id="7uBfyhkHkfYMKSbBYELB-36" value="" style="endArrow=none;html=1;rounded=0;fontSize=12;startSize=8;endSize=8;curved=1;exitX=-0.001;exitY=0.131;exitDx=0;exitDy=0;exitPerimeter=0;" edge="1" parent="1" source="PJz41p5IMt3iVWeXYQja-2">
          <mxGeometry width="50" height="50" relative="1" as="geometry">
            <mxPoint x="-118" y="-37" as="sourcePoint" />
            <mxPoint x="-74" y="-90" as="targetPoint" />
          </mxGeometry>
        </mxCell>
        <mxCell id="7uBfyhkHkfYMKSbBYELB-38" value="" style="endArrow=none;html=1;rounded=0;fontSize=12;startSize=8;endSize=8;curved=1;" edge="1" parent="1">
          <mxGeometry width="50" height="50" relative="1" as="geometry">
            <mxPoint x="-79" y="-91" as="sourcePoint" />
            <mxPoint x="-33" y="-40" as="targetPoint" />
          </mxGeometry>
        </mxCell>
        <mxCell id="7uBfyhkHkfYMKSbBYELB-39" value="" style="endArrow=none;html=1;rounded=0;fontSize=12;startSize=8;endSize=8;curved=1;" edge="1" parent="1">
          <mxGeometry width="50" height="50" relative="1" as="geometry">
            <mxPoint x="54" y="26" as="sourcePoint" />
            <mxPoint x="-34" y="-41" as="targetPoint" />
          </mxGeometry>
        </mxCell>
        <mxCell id="7uBfyhkHkfYMKSbBYELB-40" value="" style="endArrow=none;html=1;rounded=0;fontSize=12;startSize=8;endSize=8;curved=1;" edge="1" parent="1">
          <mxGeometry width="50" height="50" relative="1" as="geometry">
            <mxPoint x="53" y="24" as="sourcePoint" />
            <mxPoint x="135" y="24" as="targetPoint" />
          </mxGeometry>
        </mxCell>
        <mxCell id="7uBfyhkHkfYMKSbBYELB-42" value="" style="endArrow=none;html=1;rounded=0;fontSize=12;startSize=8;endSize=8;curved=1;" edge="1" parent="1">
          <mxGeometry width="50" height="50" relative="1" as="geometry">
            <mxPoint x="222" y="108" as="sourcePoint" />
            <mxPoint x="136" y="25" as="targetPoint" />
          </mxGeometry>
        </mxCell>
        <mxCell id="7uBfyhkHkfYMKSbBYELB-43" value="" style="endArrow=none;html=1;rounded=0;fontSize=12;startSize=8;endSize=8;curved=1;" edge="1" parent="1">
          <mxGeometry width="50" height="50" relative="1" as="geometry">
            <mxPoint x="305" y="157" as="sourcePoint" />
            <mxPoint x="223" y="110" as="targetPoint" />
          </mxGeometry>
        </mxCell>
        <mxCell id="7uBfyhkHkfYMKSbBYELB-45" value="&amp;nbsp; &amp;nbsp; &amp;nbsp; &amp;nbsp; &amp;nbsp; &amp;nbsp; &amp;nbsp; &amp;nbsp; &amp;nbsp; &amp;nbsp; &amp;nbsp; Sprint 1&amp;nbsp; &amp;nbsp; &amp;nbsp; &amp;nbsp; &amp;nbsp; &amp;nbsp; &amp;nbsp; &amp;nbsp; &amp;nbsp; &amp;nbsp; &amp;nbsp; &amp;nbsp; &amp;nbsp; &amp;nbsp; &amp;nbsp; &amp;nbsp; &amp;nbsp; &amp;nbsp; &amp;nbsp; Sprint 2&amp;nbsp; &amp;nbsp; &amp;nbsp; &amp;nbsp; &amp;nbsp; &amp;nbsp; &amp;nbsp; &amp;nbsp; &amp;nbsp; &amp;nbsp; &amp;nbsp; &amp;nbsp; &amp;nbsp; &amp;nbsp; Sprint 3&amp;nbsp; &amp;nbsp; &amp;nbsp; &amp;nbsp; &amp;nbsp; &amp;nbsp; &amp;nbsp; &amp;nbsp; &amp;nbsp; &amp;nbsp; &amp;nbsp; Sprint 4&amp;nbsp; &amp;nbsp; &amp;nbsp; &amp;nbsp; &amp;nbsp;" style="text;html=1;strokeColor=none;fillColor=none;align=center;verticalAlign=middle;whiteSpace=wrap;rounded=0;fontSize=16;" vertex="1" parent="1">
          <mxGeometry x="-354" y="319" width="877" height="30" as="geometry" />
        </mxCell>
      </root>
    </mxGraphModel>
  </diagram>
</mxfile>
